<svg xmlns="http://www.w3.org/2000/svg" viewBox="0 0 118.98 94.78"><defs><style>.cls-1{fill:#aa8a51;}</style></defs><title>cart-icon</title><g id="Layer_2" data-name="Layer 2"><g id="Layer_1-2" data-name="Layer 1"><g id="_4VS3JY.tif" data-name="4VS3JY.tif"><path class="cls-1" d="M0,2A6.47,6.47,0,0,1,1,.55,2.51,2.51,0,0,1,2.5,0c4.35,0,8.69,0,13,0A2.47,2.47,0,0,1,18,2l4.09,14.6c.84,3,1.68,6,2.5,9,.09.34.22.53.6.47a3.51,3.51,0,0,1,.52,0H116a2.57,2.57,0,0,1,2,.59,9,9,0,0,1,.94,1.47V29q-1.76,5-3.52,10l-8.76,25.07c-.06.18-.12.36-.17.55a2.51,2.51,0,0,1-2.46,2H29.92a5.53,5.53,0,0,0-5.39,3.27,5.64,5.64,0,0,0,5,8H93.43a4.37,4.37,0,0,1,1,.08,2.5,2.5,0,0,1,1.88,2.72A2.53,2.53,0,0,1,93.84,83c-1.43,0-2.86,0-4.3,0,1.53,4.38.65,8-3.31,10.59a7.85,7.85,0,0,1-9-.44C73.77,90.44,73.07,87,74.55,83H48.11c1.28,4.24.35,7.8-3.48,10.19a7.56,7.56,0,0,1-8.95-.37c-3.37-2.47-4.13-5.86-2.89-9.84-.94,0-1.85.05-2.76,0a17.68,17.68,0,0,1-3.31-.43,10.67,10.67,0,0,1,1.17-20.79c.5-.08,1-.11,1.57-.17-.27-1-.52-1.91-.79-2.86q-7.42-26.5-14.83-53C13.69,5.18,13.5,5,13,5,9.71,5,6.46,5,3.22,5A2.93,2.93,0,0,1,0,3.06ZM112.92,31.1H26.17c.05.21.08.38.13.54q4.13,14.75,8.25,29.5c.11.4.3.45.66.45q33.25,0,66.51,0a.65.65,0,0,0,.73-.53q3.67-10.56,7.38-21.12ZM82,89.69a3.19,3.19,0,1,0-3.19-3.18A3.16,3.16,0,0,0,82,89.69ZM40.44,83a3.16,3.16,0,0,0-3.19,3.18A3.19,3.19,0,1,0,40.44,83Z"/></g></g></g></svg>