<svg xmlns="http://www.w3.org/2000/svg" viewBox="0 0 220.71 115.89"><defs><style>.cls-1,.cls-2{fill:#aa8a51;}.cls-1{fill-rule:evenodd;}</style></defs><title>logo</title><g id="Layer_2" data-name="Layer 2"><g id="Layer_1-2" data-name="Layer 1"><path class="cls-1" d="M218.76,22.76a13.9,13.9,0,0,0-.64-4.65c-.09-.33-.17-.66-.25-1h-.09a3,3,0,0,0-.08-.3h-.08v-.23h-.08c-.06-.16-.11-.31-.16-.47h-.09V16h-.08c0-.11-.06-.21-.08-.32l-.17-.08c0-.1-.06-.2-.08-.31l-.17-.07V15h-.08c0-.08-.06-.16-.08-.24l-.17-.08v-.15l-.31-.24v-.15l-.41-.31V13.7l-.24-.16L215,13h-.16l-.42-.47h-.16l-.24-.31-.25-.07a1.35,1.35,0,0,1-.08-.16h-.17c0-.05-.06-.1-.09-.16h-.16l-.08-.15-.24-.08v-.08l-.34-.07c0-.06-.06-.11-.08-.15l-.32-.09v-.07H212v-.08l-.49-.16v-.08h-.24v-.08h-.17v-.08l-1.05-.24v-.08h-.33V10.3h-.32v-.08h-.81v-.07H206v.07h-.65v.08h-.25v.07l-.73.08v.08h-.25v.08h-.24v.08h-.25v.08l-.48.08v.08l-.32.07v.08h-.16v.08h-.25a.54.54,0,0,0-.08.16l-.41.07-.08.16h-.25a.7.7,0,0,1-.08.16l-.32.08-.09.15h-.16a1.11,1.11,0,0,1-.08.16h-.16l-.17.23a4.22,4.22,0,0,0-1.3,1.08.61.61,0,0,1-.48-.16v-.07h-.17l-.08-.15-.56-.08v-.08a5.17,5.17,0,0,0-1.46.08c0,.59,0,1.19.08,1.77h.08v3a8.91,8.91,0,0,1-.08,2v.93h-.08v.47h-.09v.62h-.08v.16h-.08c-.09-.16-.25-.31-.33-.47v-.15l-.17-.08c0-.11-.06-.21-.08-.31l-.17-.07v-.16l-.16-.08v-.15l-.17-.07v-.16l-.16-.07V20l-.16-.08v-.16l-.32-.23v-.16a2.58,2.58,0,0,1-.32-.23l-.57-.62h-.16c-.11-.12-.21-.26-.32-.39H193a1.65,1.65,0,0,1-.16-.22h-.17a.79.79,0,0,0-.08-.16l-.25-.07v-.08h-.16l-.08-.15-.25-.08v-.07l-.49-.17V17h-.16V17l-.48-.16v-.08l-.4-.08v-.07h-.17v-.08h-.25v-.08h-.16v-.07l-.82-.15V16.1h-.31V16h-.32V16h-.41v-.08h-.4v-.08H187v-.08h-.73v-.08c-.6-.17-1.24.15-1.7-.16l-.17-.23h-.16l-.17-.23h-.17l-.31-.39h-.17l-.48-.54h-.17l-.64-.7-.9-.77a2.12,2.12,0,0,1-.08-.24l-.48-.39v-.16l-.34-.23v-.15l-.33-.24v-.15L179.9,11v-.15c-.08-.06-.17-.1-.23-.16v-.16l-.17-.08V10.3l-.33-.23V9.9L179,9.82c0-.07,0-.15-.08-.23l-.33-.24a8.89,8.89,0,0,0-7.36-3.71h-.49A7.76,7.76,0,0,0,173,2.88a6.75,6.75,0,0,0-2.62-1.43c0-.81-.53-1.44-1.13-1.44s-1.09.64-1.13,1.45a6.63,6.63,0,0,0-2.56,1.42,7.7,7.7,0,0,0,2.1,2.71.23.23,0,0,0,.1.06h-.93a4.64,4.64,0,0,0-1.38.16h-.49v.08h-.32V6h-.25V6l-.47.16v.07h-.17a.89.89,0,0,0-.08.16h-.17l-.17.23h-.16l-.08.16h-.17a.87.87,0,0,1-.08.15h-.16c0,.06-.05.11-.09.16h-.16V7.2l-.25.07a.75.75,0,0,1-.08.15h-.16l-.17.24h-.16l-.25.31-.17.07V8.2l-.31.22v.16l-.17.07c0,.1-.06.21-.08.31l-.17.08c0,.1-.06.2-.08.3a.66.66,0,0,1-.16.08c0,.1-.06.2-.09.31l-.16.07-.17.48-.16.07c0,.08,0,.16-.08.23h-.08l-.17.47h-.08c0,.08-.06.15-.09.23l-.16.07v.16a1.86,1.86,0,0,1-.25.16v.15l-.24.16v.16l-.4.3v.16l-.17.08-.32.39h-.16l-.32.39H157c0,.05,0,.11-.08.16l-.32.08v.08h-.17v.08l-.48.16v.07h-.25v.08h-.25v.07l-.56.08v.08h-.32v.07l-.81.16v.07h-.25v.08h-.25v.08h-.4v.08h-.23V15h-.25v.07H152v.08l-.9.15v.07h-.23v.08h-.25v.08l-.82.16v.08h-.16v.08l-.49.08V16l-.48.16v.08h-.16v.07h-.16v.07l-.49.16c0,.05-.06.11-.09.15l-.32.08s0,.1-.07.16h-.17l-.08.15H147c0,.06-.06.11-.08.17h-.17l-.08.15h-.16a1.29,1.29,0,0,0-.08.15h-.17l-.17.24H146c-.08.1-.16.21-.25.3h-.16l-.49.55h-.16l-.57.63-.25.14v.16l-.39.31v.16h-.09l-.17.23-.16.07v.15c-.08.06-.17.1-.24.16v.15l-.17.08v.16l-.16.07v.16l-.17.07v.16l-.17.08v.16l-.15.08c0,.1-.06.21-.09.31l-.16.07v.16l-.17.15-.17.46h-.08c0,.11,0,.21-.08.31h-.08v.23h-.08c0,.11-.06.21-.09.31h-.08v.23a2.53,2.53,0,0,1-.32.62,4.55,4.55,0,0,1-1.95,0,7.25,7.25,0,0,1-3.48-2.48l-.4-.31v-.16l-.16-.08v-.16a1.81,1.81,0,0,1-.25-.16v-.15l-.17-.08c0-.11,0-.21-.08-.31l-.16-.07v-.16l-.17-.08v-.15l-.16-.07-.17-.47-.16-.08-.17-.46-.16-.08c-1.76-3.18-2.53-7.59-6.2-11.14a12.19,12.19,0,0,0-11.6-2.66L112.82,9.7c13.2-3.86,12.86,9,14.13,17.68,1.82,12.31,19,17.46,19,17.46l.33.39h.17l.31.39.32.08.09.16.25.08.39.47H148c.11.12.22.25.32.38h.09v.16h.08a4.52,4.52,0,0,0-.08.54h.08v.24h.08v.15l.48.39.08.15h.17l.4.47h.16c.15.15.27.31.4.47h.17l.4.46H151l.4.47h.16s.06.1.09.15l.81.7a2.18,2.18,0,0,0,.17.23h.16c.1.34.26.26.4.47V52l.17.07v.08l.16.08v.16l.16.08c0,.07.06.15.09.23s.21.15.31.23v.16l.25.16v.15l.17.08v.15l.25.16v.15l.16.08v.16l.17.07.08.31.16.07.57,1.24.16.08.17.46h.08c0,.08.06.16.08.24l.17.07c0,.11.06.21.08.31l.17.08v.15a.73.73,0,0,0,.16.08c0,.08,0,.16.08.24h.08v.22h.09a1.55,1.55,0,0,0,.08.23.69.69,0,0,1,.16.08v.16l.17.15v.16h.08v.16h.08v.16l.17.07v.16l.16.16v.15h.09v.17h.07v.15h.09v.16h.09V60h.07v.16h.09l.16.46h.08c.1.21,0,.47.17.63,0,.39,0,.57-.25.69h-.31c-.17.07-.34.24-.49.3a1,1,0,0,0,.16.55l.73.16v-.08H159v-.08l.49-.15v-.09h.16c.06-.07.1-.15.16-.22H160c0-.06.06-.1.08-.16a3.14,3.14,0,0,0,.65-.39,4,4,0,0,1,1.22.39c.06.07.1.16.16.23h.16v.08l.32.07v.09l.82.15a3.75,3.75,0,0,0,2.1.16v-.08l.56-.08v-.07h.17v-.08h.25v-.09h.16V62.5h.17v-.08h.16v-.08c.27-.15.48-.22.57-.55a1.58,1.58,0,0,0,0-1.24h-.08a2.06,2.06,0,0,1-.08-.22.78.78,0,0,1-.33-.16V60.1h-.16V60h-.32v-.07c-.36-.1-1,.29-1.21.39s0,.06-.09.15v1a.68.68,0,0,0-.16.15,4.89,4.89,0,0,1-1.79-.22v-.08h-.24v-.07l-.32-.08v-.08h-.25V61h-.16c0-.06-.07-.1-.09-.16h-.16c-.1-.12-.22-.26-.32-.39h-.08v-.15h-.08v-.16h-.08v-.31h-.09v-.16h-.08c0-.12-.06-.25-.08-.38h-.09v-.16L161,59c-.15-.21-.19-.4-.4-.54,0-.15-.07-.31-.09-.47h.09v-.39h.08v-.23h.08c0-.1.06-.21.08-.31h.09v-.16l.16-.08v-.16l.57-.39a3.32,3.32,0,0,1,1.61.54V57c.23.35-.45.68-.32,1.09H163c.1.21,0,.09.16.24.59.47,1-.46,1.38-.71v-.31h.08v-.08h-.08c0-.17-.06-.35-.08-.54l-.17-.07v-.15l-.16-.08v-.15l-.48-.31v-.16h.08v-.08H164v.08h1.69v.08h1.3a9.16,9.16,0,0,0,2.27.08v-.08h1.45v-.08h.25a17.26,17.26,0,0,0,1.94-.08c.35,0,.85.1,1.06-.08a1,1,0,0,1,.31.08v.24l-.25.16v.16h-.07c-.11.17,0,.11-.17.24a2,2,0,0,0,.24,1v.15h.09c.08.11.16.21.25.31a1,1,0,0,0,.73-.24c0-.31-.08-.92.08-1.08.1-.37.41-.45.73-.62v-.08h.25v-.08a2.12,2.12,0,0,1,1.21.39h.17a1.13,1.13,0,0,0,.08.15h.17a2.13,2.13,0,0,0,.16.24H178v.07l.16.08c0,.07.06.15.08.23h.08a2.34,2.34,0,0,1,0,1h-.08v.24h-.08v.15h-.08v.16l-.25.16v.16l-.16.07v.16l-.17.08c-.11.34-.21.67-.32,1h-.08l-.32.38h-.16l-.17.24h-.17l-.16.24H176l-.09.16h-.16l-.08.15-1.22.38a1.35,1.35,0,0,1-.81-.08c-.46-.11-.24-.28-.4-.62h-.09v-.16s-.1-.06-.16-.15a2.23,2.23,0,0,0-1.53.15v.07l-.25.17c0,.13-.06.26-.09.39h-.08c0,.18.06.35.08.52l.49.55h.16v.09a1.51,1.51,0,0,1,.32.08v.07h.25v.08h.4a6.71,6.71,0,0,0,3.4-.46h.4v-.08h.25v-.09h.25v-.07h.24v-.08h.25a2.62,2.62,0,0,1,1.46-.39l.49.16a1.5,1.5,0,0,0,.08.15l.32.09c0,.08.1.15.16.24l.33.08a.93.93,0,0,1,.08.15h.26v.09H181v.08h.17v.07h.31v.08l1.06.08v-.08c.57,0,.62-.27,1-.46a4,4,0,0,0,.08-.4h.09v-.3h-.09v-.46a2.89,2.89,0,0,0-.32-.47,2,2,0,0,0-1.45,0v.47c.21.12.27.34.49.46,0,.16,0,.07-.08.16V62c-.13,0-.27.06-.41.07V62h-.24v-.08l-.32-.08-.48-.61V61h-.09v-.16h-.08c0-.15-.06-.31-.09-.46h-.08A2.85,2.85,0,0,1,181,59v-.15H181v-.16h.08v-.16l.16-.16v-.15l.16-.08V58l.17-.15V57.7h.08v-.15h.08v-.16l.17-.08v-.15l.16-.16v-.16h.09v-.16h.08l.08-.22.17-.08c0-.11.06-.21.08-.31l.17-.08.07-.31.17-.08v-.15a.76.76,0,0,1,.17-.08l.07-.31.17-.08v-.15h.08a.57.57,0,0,0,.17-.31h.16c0-.07.06-.15.09-.23a1.87,1.87,0,0,1,.24-.16l.49-.55.48-.38c0-.06.06-.11.08-.16l.25-.08.73-.77h.17l.88-.93h.17a.91.91,0,0,1,.32-.55c0-.68-.18-.3-.49-.62h-.08V50l.48-.39v-.08h.17l.73-.77.82-.69v-.16l.31-.22v-.16c.07-.08.25-.14.32-.23.17.17,0,.49.08.77h.09c0,.31,0,.62.08.93h.08v.31h.09v.22h.08v.16h.08V50h.08a2.62,2.62,0,0,1,.08.31l.17.07v.16l.16.08v.15l.33.24.17.23h.16a.9.9,0,0,1,.08.15h.17l.08.15h.17v.09l.32.07v.07h.31a3.89,3.89,0,0,0,3-.31l.25-.31.25-.16V50.8l.16-.08v-.15h.09v-.24l.16-.07a5.62,5.62,0,0,0,.16-1.78h-.08v-.31h-.08v-.31l-.16-.07v-.16h-.09v-.15h-.08a1.56,1.56,0,0,0-.08-.15c-.16-.11-.08.08-.25-.16l-1.54-.07a8.12,8.12,0,0,1-.88.39V47.4h-.08a3.37,3.37,0,0,1,.48-1.48v-.16a5,5,0,0,0,.48-.31c.13-.12.24-.3.41-.38h.24V45h.25v-.08h.25v-.08h.24v-.08h.34v-.08h.23l.09-.16.31-.08v-.08l.32-.08v-.07h.25v-.08h.17v-.08h.24V44H198V43.9h.23v-.07h.32v-.08h.49v-.08h.57V43.6h.64v.08l1.62.08c.27,0,.67,0,.82.08a4.08,4.08,0,0,0,1.21-.08c0-.29-.06-.56-.08-.85h-.09c0-.1,0-.2-.08-.31l-.16-.08c0-.12-.06-.26-.08-.39a2.68,2.68,0,0,0,.73-.39l.31-.08a1.73,1.73,0,0,0,.09-.16h.16l.17-.15h.16v-.08h.17V41.2h.16l.09-.16.48-.16a1.63,1.63,0,0,1,.09-.16h.16l.16-.16h.17V40.5h.16l.08-.15h.17l.16-.16h.17v-.08h.16l.09-.15.31-.08.08-.15.49-.16a.57.57,0,0,0,.08-.16h.17v-.08h.16l.17-.22.33-.08c0-.08.11-.16.16-.24h.17a1,1,0,0,1,.08-.16h.17a2.06,2.06,0,0,1,.16-.23h.16l.25-.31h.16l.57-.62h.17c.13-.15.26-.31.4-.46l.81-.7c0-.07.06-.15.08-.23s.34-.26.48-.39v-.15l.32-.23v-.16l.34-.23v-.16l.25-.16v-.15l.24-.16v-.15l.16-.08.09-.23h.08c0-.1.06-.21.09-.31l.16-.08c0-.15.1-.31.16-.46l.17-.08c0-.1,0-.2.08-.31h.08v-.16h.08c.06-.15.12-.3.17-.46h.08v-.24h.08v-.16h.09a2.74,2.74,0,0,1,.08-.3h.08v-.16H216V31h.09v-.16h.08v-.16h.08V30.5h.08a2.94,2.94,0,0,0,.08-.3h.08V30h.09v-.16h.08v-.16h.08v-.16l.17-.15v-.15l.17-.08V29l.16-.16v-.16h.08v-.15l.16-.08.17-.47.16-.08V27.8l.17-.08c0-.1.06-.21.08-.31l.17-.07c0-.08.06-.16.08-.24h.08c0-.11.06-.21.08-.31l.17-.07v-.16h.08V26.4l.17-.07v-.16a.66.66,0,0,1,.16-.08v-.16l.16-.08V25.7l.17-.08c0-.09.06-.2.08-.31l.16-.08v-.15l.17-.08c0-.11.06-.21.08-.31l.17-.08c0-.1.06-.2.08-.3l.16-.08v-.16a1.54,1.54,0,0,0,.33-.62h.17v-.62c-.59,0-1.25-.08-1.95-.08m-59.68,35c-.47-.11-.36-.38-.56-.69l-.16-.08v-.16h-.09v-.16l-.16-.07v-.15L158,56.3v-.15h-.08V56h-.09v-.16h-.08v-.16h-.08v-.15h-.08v-.16h-.08v-.15h-.09v-.16h-.08c0-.11-.06-.21-.08-.31h-.08V54.6h-.09v-.22l-.16-.08c-.06-.23-.11-.47-.16-.7l1.21.47v.08l.48.07v.08l.32.08v.08l.4.07v.07l.49.08v.08h.16v.08h.25a3,3,0,0,0,.9.31c0,.08.06.15.08.23a3.12,3.12,0,0,0-1.95,2.4m22.11-2.55h-.08v.31H181c0,.15-.06.31-.09.47h-.08v.16h-.08v.23h-.08c0,.11-.06.21-.09.31h-.08c0,.11-.06.21-.09.31l-.16.08c0,.1-.06.21-.08.31h-.08l-.25.31h-.17A3.09,3.09,0,0,0,177.23,55v-.23c.12,0,.28,0,.4-.08V54.6h.17v-.07H178v-.07h.31v-.08h.17v-.08h.16v-.08h.17v-.07h.23v-.08l.49-.16v-.08l.48-.15c0-.05.06-.11.09-.15h.16a1.34,1.34,0,0,0,.08-.16l.41-.23c.08.15.26.31.32.46s0,.31.08.47h.08a2.81,2.81,0,0,1-.08,1.16m34.41-31.15h-.08v.78h-.08v.54c-.22.68-.44,1.34-.65,2h-.09c0,.16-.1.31-.16.47h-.08V28h-.09v.16h-.08v.15h-.08v.16h-.08v.15h-.08v.16l-.17.16v.15h-.08c0,.08-.06.16-.08.24l-.17.07v.15l-.17.08v.16l-.16.08V30h-.08c0,.08-.06.16-.09.22l-.15.08v.15l-.25.16v.16l-.25.16v.16l-.24.16v.15l-.25.15v.16l-.16.08v.08l-.16.08v.16l-.32.23v.15l-.4.31V33l-.34.24v.14c-.13.11-.26.21-.4.31v.16l-.31.23v.15l-.41.31v.16L209,35v.16l-.4.31v.15l-.4.31-.65.69h-.17c-.1.13-.21.26-.32.39h-.16s-.06.1-.09.16h-.08l-.08.16h-.16s-.06.1-.09.15h-.16a.93.93,0,0,0-.08.15l-.25.08v.08l-.32.08c0,.06-.06.1-.08.16h-.17l-.16.15h-.17v.08h-.16v.08h-.17v.07h-.16v.07l-.49.16v.08l-.48.08v.08h-.16V39h-.25V39H203v.08h-.23v.08h-.32v.07l-.74.07v.08l-.48.08v-.08l-.16-.08V37.79a6.19,6.19,0,0,1-.41-1.16c-.09-.07,0,0-.08-.07h-.32c-.08.33-.16.67-.25,1h-.08v.23l-.16.08a2.74,2.74,0,0,0-.08.31l-.17.08v.16l-.16.07v.16a8.9,8.9,0,0,1-1.22,1.16l-.32.39h-.17l-.31.38-.25.08a1.36,1.36,0,0,0-.08.16h-.17a1.14,1.14,0,0,1-.08.16l-.24.08v.08h-.17l-.08.16h-.17a1.13,1.13,0,0,1-.08.15h-.17l-.08.15h-.16a.75.75,0,0,1-.09.16l-.24.08v.08L195,42l-.08.15-.74.15-.08.17a1.28,1.28,0,0,1-.73.3,1.06,1.06,0,0,1,.32-.62l.17-.07a2,2,0,0,1,.08-.24l.24-.16V41.5l.17-.07v-.15h.08v-.16l.17-.08c.08-.26.17-.52.23-.77h.09v-.16H195V40l.16-.08c0-.13.06-.26.08-.39a.76.76,0,0,0,.17-.08,2.6,2.6,0,0,0,.08-.3h.08V39h.09c0-.16.1-.31.16-.47h.08v-.23h.09c0-.1.06-.21.08-.31h.08v-.16h.09v-.23h.08c0-.11.06-.21.08-.31h.08L197.56,34v-.39h.07V33.3h.09V33h.08c0-.26.06-.51.09-.77H198v-.55H198v-.54h.08V30.5h.08V29h.08c0-.63,0-1.24-.08-1.86.35,0,.27.11.49.22v.16a1.69,1.69,0,0,1,.65.46s0,.1.08.16h.16a1.52,1.52,0,0,1,.09.15h.16s.06.1.08.16l.32.08a.63.63,0,0,1,.08.15l.41.08v.08h.16V29l.49.08v.07h.31a6,6,0,0,0,4-.39l.17-.23H206l.25-.31h.08V28l.16-.08V27.8l.17-.08v-.15h.08V27.4h.08v-.22h.08V27h.09v-.39a1.8,1.8,0,0,0,.16-.69,1,1,0,0,0-.08-.16h.08v-.55H207c0-.22,0-.46-.08-.69h-.09v-.22h-.08v-.16h-.08c0-.15-.11-.31-.16-.46a1.81,1.81,0,0,1-.25-.16v-.14l-.81-.55h-.25v-.08h-.82l-.73.08v.08h-.16V23h-.25v.08h-.16v.08H203a1.37,1.37,0,0,1-.08.15h-.16l-.17.15v.16a.62.62,0,0,1-.16.08c0,.13-.06.26-.08.39h-.09a2.27,2.27,0,0,0,.57,1.78,1,1,0,0,1-.08.31,3.72,3.72,0,0,1-1.46-.47v-.08a.78.78,0,0,0-.34-.16.85.85,0,0,0-.23-.38h-.09v-.16h-.08c-.06-.16-.11-.31-.16-.47h-.09v-.22h-.08v-.31h-.08v-.47h-.08c0-.44-.06-.87-.09-1.31h.09c0-.45,0-.88.08-1.33h.08c0-.1.06-.21.08-.31h.09v-.22h.08c0-.11.06-.21.08-.31h.08c0-.11.07-.21.09-.31l.16-.08c.06-.16.11-.3.17-.47l.16-.07v-.16l.25-.15v-.16a.66.66,0,0,0,.16-.08v-.15l.25-.16V18c.27-.24.54-.47.82-.7s.19-.34.4-.46v-.39l-.49-.39V16h-.16c-.06-.07-.11-.15-.17-.23-.3-.19-.43.07-.57-.39a2.73,2.73,0,0,0,.49-.31l.17-.23h.16a.74.74,0,0,0,.08-.16l.25-.07v-.07H203l.09-.16.31-.08v-.08l.32-.07v-.08l.4-.07v-.08l.49-.07v-.08l.57-.08v-.08a14.53,14.53,0,0,1,2.18-.16h.08v-.08l1.05-.08v.08h.32v.08h.33v.08l.65.08v.08h.16v.08h.25v.08h.17c0,.06.06.11.08.16l.32.07.08.15H211c.06.08.1.16.16.23h.17c.1.13.21.26.32.39h.16c0,.06.06.1.08.16l.57.46v.16l.4.32v.15l.17.08v.15l.24.15v.16l.16.08a2.65,2.65,0,0,1,.09.31l.17.07a3,3,0,0,0,.08.32l.16.07c0,.11.06.21.09.31h.08V18h.08c0,.15.1.31.16.47h.08v.22h.09a2.59,2.59,0,0,0,.08.31h.09c0,.24.1.46.16.7h.08v.16H215v.31H215v.23h.09v.23h.08v.47h.08v.3h.08v.31h.09v.7h.08v.78h.08Z"/><path class="cls-2" d="M15.89,20.82V40.24c0,6.55,1.39,9,5.46,9,1.5,0,3.86-1,6.65-2.67,1.51-.86,1.94-1.08,2.47-1.08a1.29,1.29,0,0,1,1.39,1.4c0,1.29-1.29,2.9-4,4.93a20.8,20.8,0,0,1-12.23,4.4c-4.4,0-8.58-1.83-10.3-4.72a12.24,12.24,0,0,1-1.51-5.58V21C.86,21,0,20.5,0,18.89c0-1,0-1,2.9-3a16.43,16.43,0,0,0,6.76-12c.22-2,.86-2.68,2.47-2.68h1.6c1.84,0,2.16.65,2.16,4V13h6.32c2.68,0,3.54.75,3.54,3v2.15c0,1.82-1.07,2.69-3.32,2.69Zm41.2,11.57L41.87,38.57c1.28,3.92,2.28,5.66,4.38,7.57A14,14,0,0,0,56.08,50c3.1,0,7.47-1.37,11-3.37,1-.55,1.19-.64,1.56-.64a1.38,1.38,0,0,1,1.28,1.28c0,1-1.82,2.83-4.37,4.37a28,28,0,0,1-15,4.64C39.05,56.25,30,46.69,30,34.67c0-11.2,8.74-20.59,19.22-20.59,7.29,0,13.57,5.1,13.57,11.11,0,3.46-1.64,5.47-5.74,7.21m-16,1.54,5.83-2.37a35.91,35.91,0,0,0,4.27-2.28,3.73,3.73,0,0,0,1.47-3.37c0-3.64-2.37-6.74-5.1-6.74-3.92,0-6.75,5-6.75,11.56a27.38,27.38,0,0,0,.28,3.19m64.48-5.38v16c0,3.47.92,4.91,2.92,4.91a6.35,6.35,0,0,0,3-1,5.34,5.34,0,0,1,2.55-1,1,1,0,0,1,.92,1.09c0,.91-.74,2-2.64,3.56q-4.65,4.1-9.3,4.1c-3.55,0-6-1.81-7.28-5.37-3.56,3.56-7.48,5.37-12.12,5.37-7.28,0-12.66-5.37-12.66-12.93,0-8.11,6.74-13.84,16.11-13.84a22.29,22.29,0,0,1,8.21,1.63V28.83c0-3.82-.19-4.83-1.29-6.1a7.39,7.39,0,0,0-5.55-2.18c-3.37,0-4.92.45-10.3,2.92a3.12,3.12,0,0,1-1.37.36,1.44,1.44,0,0,1-1.47-1.46c0-.82,1.1-2,3.38-3.64a25.8,25.8,0,0,1,14.21-4.65c8.65,0,12.66,4.55,12.66,14.48M95.25,38.86V36.22a17.39,17.39,0,0,0-6.47-1.55c-4.29,0-6.93,2.83-6.93,7.38,0,4.73,2.64,8,6.37,8a7.13,7.13,0,0,0,5.56-3.47c1.19-1.72,1.46-3.19,1.46-7.74M41.67,111.24V89.38c0-2.18-.09-2.37-1.9-3a1.8,1.8,0,0,1-.92-1.54c0-.82.45-1.45,1.64-2.28,4.27-2.91,4.82-3.45,8.56-7.55a2.48,2.48,0,0,1,1.81-1.1,1.78,1.78,0,0,1,1.82,1.82,9.51,9.51,0,0,1-.36,2.18,19.31,19.31,0,0,0-.46,3.74,19.88,19.88,0,0,1,1.45-1.73c4-4.64,6.56-6.19,10.75-6.19a11,11,0,0,1,8.2,3.46c1.91,2.19,2.27,3.92,2.27,9.29V104c0,3.73.83,5.1,3,5.1,1.28,0,2.27-.37,4.38-1.64a1.4,1.4,0,0,1,.82-.37,1.22,1.22,0,0,1,1.28,1.1c-.1,1-1.28,2.37-3.47,4.1a14.43,14.43,0,0,1-8.74,3.38,6.68,6.68,0,0,1-6.1-3.28c-.92-1.56-1.29-3.38-1.29-6.75V88.11c0-3.83-1.54-5.92-4.55-5.92a8,8,0,0,0-6.37,4c-1.28,2.18-1.73,4.29-1.73,8.11V111c0,3.19-.64,3.93-3,3.93H44.4c-2.09,0-2.73-.92-2.73-3.66m79.75-53v46.44c0,2.82,1,4.37,3,4.37,1,0,1.63-.28,4.46-1.84a2,2,0,0,1,.91-.27,1.23,1.23,0,0,1,1.19,1.28c0,.73-.64,1.64-2.18,3-3.2,2.92-6.75,4.48-9.85,4.48-3.74,0-6-1.64-7.3-5.19-4.45,3.73-8.37,5.37-12.65,5.37-9.2,0-15.48-7.74-15.48-18.85,0-13.39,8-23.32,18.85-23.32,3.18,0,4.64.37,8.83,2V63.44c0-1.47-.27-1.82-1.45-2.37-.92-.37-4,.38-4.42-.37-.22-.47-.06-.91.6-1.19a31.35,31.35,0,0,0,12.38-9.66,2.91,2.91,0,0,1,2.18-1.26c1.58,0,1.52,1.69,1.24,3.27a49.33,49.33,0,0,0-.32,6.38m-10.21,45.89V87.56c0-5.74-2.37-8.74-7-8.74-5.73,0-9.57,6.29-9.57,15.76,0,8.75,3.2,14.12,8.48,14.12,2.73,0,5.46-1.47,8.1-4.55M142.5,85.73v18.41c0,3.28,1,4.92,2.91,4.92a7.3,7.3,0,0,0,3.65-1.46c1.1-.73,1.45-.91,1.82-.91a1.33,1.33,0,0,1,1.1,1.37c0,.64-.37,1.19-1.82,2.64-3.28,3.1-6.84,4.92-9.94,4.92-5.09,0-7.92-3.38-7.92-9.39V89.75c0-2.28-.09-2.74-1.19-3.19-1.37-.37-1.63-.73-1.63-1.64s.36-1.54,1.72-2.37a38.72,38.72,0,0,0,7.48-6.37c1.91-2.09,2.1-2.28,3-2.28a1.76,1.76,0,0,1,1.73,1.82,23.69,23.69,0,0,1-.45,3,47.21,47.21,0,0,0-.46,7M137.22,56a6.29,6.29,0,1,1,0,12.57,6.29,6.29,0,0,1,0-12.57M187.14,88.2v16c0,3.46.92,4.92,2.92,4.92a6.32,6.32,0,0,0,3-1,5.42,5.42,0,0,1,2.54-1,1,1,0,0,1,.92,1.1c0,.92-.73,2-2.64,3.56-3.1,2.73-6.19,4.1-9.3,4.1-3.55,0-6-1.82-7.29-5.37-3.55,3.55-7.47,5.37-12.12,5.37-7.28,0-12.66-5.37-12.66-12.94,0-8.1,6.74-13.84,16.12-13.84a22.29,22.29,0,0,1,8.19,1.63V88.48c0-3.83-.18-4.83-1.26-6.11A7.42,7.42,0,0,0,170,80.18c-3.38,0-4.92.46-10.29,2.91a3,3,0,0,1-1.37.37A1.43,1.43,0,0,1,156.9,82c0-.83,1.09-2,3.37-3.65a25.83,25.83,0,0,1,14.21-4.64c8.65,0,12.66,4.55,12.66,14.48M176.85,98.49V95.85a17.5,17.5,0,0,0-6.47-1.54c-4.27,0-6.91,2.82-6.91,7.37,0,4.74,2.64,8,6.37,8a7.13,7.13,0,0,0,5.56-3.47c1.19-1.73,1.46-3.19,1.46-7.74M38.36,107.05c-.46,0-.56.09-2,1.1a6.44,6.44,0,0,1-3.28,1.19c-2.09,0-2.73-1-2.73-4.74V61.35A14.6,14.6,0,0,1,31.16,57c.85-1.68,1.2-3.87-1.32-2.41-6.1,3.52-10.72,5.24-16.54,4.21-.94-.17-1.28.77-.07,1.65.57.42,2.83,1.27,3.7,1.77,1.56.91,1.91,2.15,1.91,5.71v37.84c0,4.11.28,5.29,1.46,6.93a7.78,7.78,0,0,0,6.48,3c3.55,0,7.48-1.73,10.83-4.83,1.19-1,1.82-1.91,1.82-2.73a1.06,1.06,0,0,0-1.09-1.1"/></g></g></svg>